<svg xmlns="http://www.w3.org/2000/svg" viewBox="0 0 859.48 522.35"><defs><style>.cls-1{fill:#3f3d56;}.cls-2{fill:#e6e6e6;}.cls-3{fill:#fff;}.cls-4{fill:#0a0a35;}.cls-5{fill:#ccc;}</style></defs><g id="Calque_2" data-name="Calque 2"><g id="a1abe23f-2807-4f9c-a5d8-6f58febb0620"><polygon class="cls-1" points="859.08 522.35 0 522.35 0 520.17 859.48 520.17 859.08 522.35"/><path class="cls-2" d="M816.54,503.91s-3-23.66-6.29-19.05L808,466.73c2.41-.74,4.15-1.7,4.55-2.92l-4.81-45.7s.8-51.32-12.83-62.54c0,0-2.41-13.63-4.81-19.24s-6.42-8.82-4-12.83-3.21-48.11-3.21-48.11a68.44,68.44,0,0,0,.39-8.5V267s2.41-.8,0-3.21l-.22-.22c0-.33-.08-.66-.12-1a3.83,3.83,0,0,0,2.75-1.21c2.4-2.4,0,0-.8-2.4s0-.8.8-1.6-3.21-8-3.21-8l.24-2.27,30.63-43.84-2.84-42.67c.68.29,1.36.61,2,1,0,0-2.37-51.21-15.69-56.79l0-.54C787.27,92.17,760,81.75,760,81.75h0l1.12-11.17a24.9,24.9,0,0,0,8.49-12c3-1.71,6.09-24.35-3.21-29,0,0-7.59-16.45-22.15-12.65s-22.78,9.49-23.41,15.18a80.62,80.62,0,0,0,.31,14.24,15.41,15.41,0,0,1,2.19-5.73,24.85,24.85,0,0,0,12.57,33,47.56,47.56,0,0,1-2.37,15.29v-.74c-5.35,3.19-8.56,9-10.4,15a142.26,142.26,0,0,0-6.1,33.93l-1.94,34.47-7,26.42-48.56,32.85S631,244.52,632.8,253c1.61,7.59,23.66,6.69,30.61-5l35.88-16.31-8.17,31-.47.66v11.22L716.31,370l4.81,20.85s0,80.18,4.81,80.18h.49l.38,5.28a1.45,1.45,0,0,0-.87-.08l-4.81,8.82s-21.65,20.05-28.06,20.85c0,0-20.85,6.41,0,16h24.05s16-.81,19.25,0c1.94.48,9.51.67,15.33-.33l1.5.73h24.06s16-1.61,19.24-.8,21.65.8,22.45-4S816.54,503.91,816.54,503.91Zm-30.47-27.27-4.81,8.82s-15.84,14.67-24.43,19.41c-.26-.84-.43-1.37-.43-1.37s-2.95-23.65-6.29-19l-1.66-13.34c2.37-.43,3.94-1.2,3.94-2.49,0-4.82-1.6-113.86-1.6-113.86l21.65,40.89s9.62,72.16,12.83,73a8.13,8.13,0,0,0,1.1.15l.56,7.94A1.41,1.41,0,0,0,786.07,476.64Z"/><rect class="cls-2" x="363.49" y="189.97" width="303.97" height="60.01"/><rect class="cls-2" x="363.49" y="95.14" width="303.97" height="60.01"/><rect class="cls-2" x="363.49" width="303.97" height="60.01"/><path class="cls-3" d="M370,53.53H661v-47H370Z"/><path class="cls-3" d="M370,148.89H661V101.83H370Z"/><path class="cls-3" d="M370,243.51H661V196.45H370Z"/><circle class="cls-4" cx="395.44" cy="29.62" r="17.93"/><rect class="cls-4" x="438.31" y="22.6" width="176.93" height="3.9"/><rect class="cls-4" x="438.31" y="32.74" width="176.93" height="3.9"/><circle class="cls-5" cx="395.44" cy="125.54" r="17.93"/><rect class="cls-5" x="438.31" y="118.52" width="176.93" height="3.9"/><rect class="cls-5" x="438.31" y="128.66" width="176.93" height="3.9"/><circle class="cls-5" cx="395.44" cy="220.37" r="17.93"/><rect class="cls-5" x="438.31" y="213.35" width="176.93" height="3.9"/><rect class="cls-5" x="438.31" y="223.49" width="176.93" height="3.9"/><path class="cls-1" d="M257.43,159a.5.5,0,0,0,.7,0l3-3a.49.49,0,0,0-.7-.7l-3,3A.5.5,0,0,0,257.43,159Z"/><path class="cls-1" d="M252.42,164a.5.5,0,0,0,.7,0l3-3a.49.49,0,0,0-.7-.7l-3,3A.48.48,0,0,0,252.42,164Z"/><polygon class="cls-2" points="269.12 146.91 269.12 146.91 269.12 146.91 269.12 146.91"/><path class="cls-2" d="M269.09,149.93l.09-.15c.05-.1.11-.19.15-.29a1.07,1.07,0,0,0,.07-.19l.09-.28,0-.2a1.53,1.53,0,0,0,0-.3,1.21,1.21,0,0,0,0-.19,3,3,0,0,0,0-.31l0-.18c0-.11-.06-.22-.09-.33s0-.1-.05-.15a2.79,2.79,0,0,0-.24-.45h0a2.36,2.36,0,0,0-.35-.43,2.17,2.17,0,0,0-.44-.36l-20.71-13.49a2.71,2.71,0,0,0-3.4.33l-24.13,23.57A41.31,41.31,0,0,0,208.72,159s-2,.27-5.16.64c.05-13-7.88-51-12.8-52.13,0,0,3.66-18.33-5.66-26.58a28,28,0,0,1,.89-7.22,24.49,24.49,0,0,0,28.12-24.28A24.41,24.41,0,0,0,211.3,38a9.74,9.74,0,0,0,5.37-1.2c2.24-1.44,3.25-4.15,4-6.69.89-3,1.46-6.7-.74-8.94-1.54-1.55-4-1.86-5.67-3.22-.92-.74-13.11-3.7-24.56-6.36a23.92,23.92,0,0,0-27.9,15.14c-2.64,7.27-4.91,14.1-4.68,15.57,1,6.3,6.06,11.44,7.46,17.54-1.1,1.49-3.28,4.23-4.6,5.61l-2.76-1.68s-4.19-.6-6,8.38c0,0-34.13,6.59-37.72,38.92s2.4,79.63,2.4,79.63-5.39,41.31-12,63.47c0,0-3.48,3.1,7.65.56-1.27,8.34-2,18.53,1.33,22.79,6,7.78,10.78,56.28,10.78,56.28s-3,42.51-9.58,58.08.6,68.85.6,68.85-1.8,11.38,0,13.18,1.79,4.79,1.79,8.38c0,.56.86,1.13,2.29,1.65-3.25,8.88-11.07,32.09-5.28,35.47,2.55,1.49,13.69,2.07,27,2.2,19.18,1.7,68.28-.25,68.28-.25s11.47-7.09-1.63-12c0,0-10.92-.54-18-4.91s-15.29-12.56-15.29-12.56-.52-11.37-4.57-9.46c-.52-2.6-.95-5.19-.69-6.51.6-3-5.38-20.36-5.38-20.36l4.19-47.3c3-3.59,3-15,3-15,9-7.78,12-43.7,12-43.7l8.48-80.48a8.23,8.23,0,0,0,1.69-4.16c0-2,4.19-45.12,7.42-74.91l12.24,12.67a2.72,2.72,0,0,0,3.42.41,3.37,3.37,0,0,0,.43-.34l0,0,15.58-15.52c7.75.79,18.92-1.67,18.09-12.5a10.59,10.59,0,0,0-1.19-4.32l20.19-20.11A2.51,2.51,0,0,0,269.09,149.93ZM164,490.28l-.16,0H164Z"/></g></g></svg>