<svg xmlns="http://www.w3.org/2000/svg" viewBox="0 0 163.93 63.77"><defs><style>.cls-1{fill:#15152a;}.cls-2{fill:#ec6663;}</style></defs><g id="Calque_2" data-name="Calque 2"><g id="Calque_1-2" data-name="Calque 1"><path class="cls-1" d="M11.81,37.3H27.7V48.71H0V2.53H11.81Z"/><path class="cls-1" d="M34.78,44.61a16.72,16.72,0,0,1-5.15-12.39,16.61,16.61,0,0,1,5.15-12.34A17.16,17.16,0,0,1,47.25,14.8a16.92,16.92,0,0,1,12.46,5.08,16.61,16.61,0,0,1,5.15,12.34A17.36,17.36,0,0,1,47.25,49.63,17.11,17.11,0,0,1,34.78,44.61ZM53.91,32.22a6.63,6.63,0,1,0-13.26,0,6.63,6.63,0,1,0,13.26,0Z"/><path class="cls-1" d="M93,15.73h11v33H93v-3c-2.24,2.64-5.34,4-9.36,4a14.32,14.32,0,0,1-11.09-5,18.17,18.17,0,0,1-4.42-12.46,17.88,17.88,0,0,1,4.42-12.4,14.15,14.15,0,0,1,11.09-5c4,0,7.12,1.32,9.36,4ZM86.05,39.4a6.67,6.67,0,0,0,5-2A7.26,7.26,0,0,0,93,32.22,7.23,7.23,0,0,0,91.07,27a7.34,7.34,0,0,0-10,0,7.23,7.23,0,0,0-1.91,5.21A7.26,7.26,0,0,0,81,37.43,6.64,6.64,0,0,0,86.05,39.4Z"/><path class="cls-1" d="M160.55,28.52V48.71h-11V29.78c0-3.11-1.38-4.62-4.09-4.62-3,0-4.55,2.11-4.55,5.54v18H129.94V29.78c0-3.11-1.39-4.62-4.16-4.62-3,0-4.55,2.11-4.55,5.54v18h-11v-33h11v3.09c2-2.7,5-4,8.91-4s6.59,1.39,8.44,4.23a11.61,11.61,0,0,1,9.57-4.23C155.8,14.8,160.55,20,160.55,28.52Z"/><path class="cls-2" d="M15.19,34.77H31.08v11.4H3.38V0H15.19Z"/><path class="cls-2" d="M38.15,42.08A16.75,16.75,0,0,1,33,29.69a16.62,16.62,0,0,1,5.14-12.34,17.16,17.16,0,0,1,12.47-5.08,17,17,0,0,1,12.47,5.08,16.59,16.59,0,0,1,5.15,12.34,16.72,16.72,0,0,1-5.15,12.39,16.9,16.9,0,0,1-12.47,5A17.11,17.11,0,0,1,38.15,42.08ZM57.28,29.69a6.63,6.63,0,1,0-13.26,0,6.63,6.63,0,1,0,13.26,0Z"/><path class="cls-2" d="M96.36,13.2H107.3v33H96.36v-3c-2.25,2.64-5.35,4-9.37,4a14.3,14.3,0,0,1-11.08-5,18.15,18.15,0,0,1-4.43-12.46,17.86,17.86,0,0,1,4.43-12.41,14.16,14.16,0,0,1,11.08-5c4,0,7.12,1.32,9.37,4ZM89.43,36.87a6.63,6.63,0,0,0,5-2,7.24,7.24,0,0,0,1.92-5.21,7.17,7.17,0,0,0-1.92-5.21,7.3,7.3,0,0,0-10,0,7.17,7.17,0,0,0-1.92,5.21,7.24,7.24,0,0,0,1.92,5.21A6.63,6.63,0,0,0,89.43,36.87Z"/><path class="cls-2" d="M163.93,26V46.17h-11V27.25c0-3.11-1.39-4.62-4.09-4.62-3,0-4.55,2.1-4.55,5.54v18h-11V27.25c0-3.11-1.39-4.62-4.16-4.62-3,0-4.55,2.1-4.55,5.54v18h-11v-33h11v3.09c2-2.7,5-4,8.9-4s6.6,1.39,8.45,4.22a11.61,11.61,0,0,1,9.56-4.22C159.17,12.27,163.93,17.48,163.93,26Z"/><path class="cls-1" d="M86.09,60.55a3,3,0,0,1-.87-2.2,3,3,0,0,1,3.08-3.08,2.79,2.79,0,0,1,2.58,1.53l-.85.49a1.87,1.87,0,0,0-1.73-1,2,2,0,0,0-1.48.6,2.15,2.15,0,0,0,0,3,2,2,0,0,0,1.48.6,1.94,1.94,0,0,0,1.76-1l.87.5a3,3,0,0,1-2.63,1.52A3,3,0,0,1,86.09,60.55Z"/><path class="cls-1" d="M94.61,61.42a3,3,0,0,1-2.19-.88,3,3,0,0,1-.89-2.19,2.94,2.94,0,0,1,.89-2.19,3.09,3.09,0,0,1,5.28,2.19,3,3,0,0,1-3.09,3.07Zm1.47-1.59a2,2,0,0,0,.6-1.48,2.08,2.08,0,0,0-3.54-1.49,2,2,0,0,0-.59,1.49,2,2,0,0,0,.59,1.48,2.1,2.1,0,0,0,2.94,0Z"/><path class="cls-1" d="M99,58.17v-1h4.28v1Z"/><path class="cls-1" d="M108,53.91c-1-.08-1.55.36-1.55,1.33v.18H108v1H106.4v4.87h-1V56.4h-.93v-1h.93v-.18A2.13,2.13,0,0,1,108,52.93Z"/><path class="cls-1" d="M109.74,56.4a1.86,1.86,0,0,1,1.83-1.09v1.07a1.85,1.85,0,0,0-1.29.4,1.68,1.68,0,0,0-.54,1.39v3.1h-1V55.42h1Z"/><path class="cls-1" d="M113,58.81a2,2,0,0,0,2.12,1.65,1.82,1.82,0,0,0,1.68-.85l.87.49a2.86,2.86,0,0,1-2.57,1.32,3.15,3.15,0,0,1-2.28-.86,3,3,0,0,1-.86-2.21,3,3,0,0,1,.85-2.2,3,3,0,0,1,2.22-.88,2.66,2.66,0,0,1,2.09.91,3.1,3.1,0,0,1,.82,2.18,2.28,2.28,0,0,1,0,.45Zm0-.88h3.91a1.85,1.85,0,0,0-1.88-1.7A2,2,0,0,0,113,57.93Z"/><path class="cls-1" d="M119.78,58.81a2,2,0,0,0,2.12,1.65,1.82,1.82,0,0,0,1.68-.85l.87.49a2.88,2.88,0,0,1-2.58,1.32,3.14,3.14,0,0,1-2.27-.86,3.06,3.06,0,0,1-.87-2.21,3,3,0,0,1,.86-2.2,2.94,2.94,0,0,1,2.21-.88,2.67,2.67,0,0,1,2.1.91,3.1,3.1,0,0,1,.82,2.18,2.28,2.28,0,0,1,0,.45Zm0-.88h3.91a1.85,1.85,0,0,0-1.89-1.7A1.94,1.94,0,0,0,119.78,57.93Z"/><path class="cls-1" d="M125.89,61.27V52.73h1v8.54Z"/><path class="cls-1" d="M133.31,55.42h1v5.85h-1v-1a2.47,2.47,0,0,1-2.21,1.15,2.8,2.8,0,0,1-2.09-.88,3.05,3.05,0,0,1-.87-2.19,3,3,0,0,1,.87-2.18,2.78,2.78,0,0,1,2.09-.9,2.45,2.45,0,0,1,2.21,1.16Zm-.59,4.42a2.18,2.18,0,0,0,0-3,2.11,2.11,0,0,0-3,0,2.18,2.18,0,0,0,0,3,2.14,2.14,0,0,0,3,0Z"/><path class="cls-1" d="M141.07,57.68v3.59h-1V57.74a1.35,1.35,0,0,0-1.45-1.5c-1,0-1.7.62-1.7,1.93v3.1h-1V55.42h1v.84a2.07,2.07,0,0,1,1.89-1A2.19,2.19,0,0,1,141.07,57.68Z"/><path class="cls-1" d="M143,60.55a3,3,0,0,1-.88-2.2,3,3,0,0,1,3.08-3.08,2.78,2.78,0,0,1,2.58,1.53l-.85.49a1.87,1.87,0,0,0-1.73-1,2,2,0,0,0-1.48.6,2.18,2.18,0,0,0,0,3,2,2,0,0,0,1.48.6,1.94,1.94,0,0,0,1.76-1l.87.5a3,3,0,0,1-2.63,1.52A3,3,0,0,1,143,60.55Z"/><path class="cls-1" d="M148.7,53.68a.69.69,0,0,1,.69-.69.69.69,0,1,1-.69.69Zm.18,7.59V55.42h1v5.85Z"/><path class="cls-1" d="M156.64,57.68v3.59h-1V57.74a1.35,1.35,0,0,0-1.45-1.5c-1,0-1.7.62-1.7,1.93v3.1h-1V55.42h1v.84a2.09,2.09,0,0,1,1.9-1A2.19,2.19,0,0,1,156.64,57.68Z"/><path class="cls-1" d="M162.92,55.42h1V61a2.47,2.47,0,0,1-.88,2,3.24,3.24,0,0,1-2.11.73,2.91,2.91,0,0,1-2.77-1.43l.89-.51a1.9,1.9,0,0,0,1.9,1,1.74,1.74,0,0,0,2-1.79V60.2a2.49,2.49,0,0,1-2.2,1.17,2.85,2.85,0,0,1-2.12-.89,3,3,0,0,1-.87-2.17,3,3,0,0,1,.87-2.15,2.82,2.82,0,0,1,2.12-.89,2.45,2.45,0,0,1,2.2,1.16Zm-.6,1.42a2.14,2.14,0,0,0-3,0,2,2,0,0,0-.6,1.47,2.09,2.09,0,1,0,4.17,0A2,2,0,0,0,162.32,56.84Z"/></g></g></svg>